<svg width="39" height="31" viewBox="0 0 39 31" fill="none" xmlns="http://www.w3.org/2000/svg">
<g filter="url(#filter0_i_41_450)">
<path d="M14.112 25.885C14.6744 25.3342 14.9903 24.5872 14.9903 23.8082C14.9903 23.0293 14.6744 22.2823 14.112 21.7314L10.75 18.4375H26C26.7956 18.4375 27.5587 18.128 28.1213 17.5771C28.6839 17.0262 29 16.2791 29 15.5C29 14.7209 28.6839 13.9738 28.1213 13.4229C27.5587 12.872 26.7956 12.5625 26 12.5625H10.748L14.112 9.26858C14.3906 8.99585 14.6117 8.67205 14.7626 8.31566C14.9134 7.95927 14.9911 7.57728 14.9912 7.19148C14.9913 6.80569 14.9138 6.42366 14.7631 6.0672C14.6124 5.71074 14.3915 5.38684 14.113 5.11398C13.8344 4.84112 13.5037 4.62465 13.1398 4.47693C12.7758 4.32921 12.3857 4.25313 11.9917 4.25304C11.196 4.25286 10.4328 4.5622 9.86997 5.113L1.38397 13.4242C0.821561 13.975 0.505615 14.7221 0.505615 15.501C0.505615 16.2799 0.821561 17.0269 1.38397 17.5778L9.86997 25.887C10.4326 26.4377 11.1955 26.7471 11.991 26.7471C12.7865 26.7471 13.5494 26.4377 14.112 25.887V25.885ZM39 3.75C39 2.97093 38.6839 2.22376 38.1213 1.67287C37.5587 1.12199 36.7956 0.8125 36 0.8125C35.2043 0.8125 34.4413 1.12199 33.8787 1.67287C33.316 2.22376 33 2.97093 33 3.75V27.25C33 28.0291 33.316 28.7762 33.8787 29.3271C34.4413 29.878 35.2043 30.1875 36 30.1875C36.7956 30.1875 37.5587 29.878 38.1213 29.3271C38.6839 28.7762 39 28.0291 39 27.25V3.75Z" fill="#0F5846"/>
</g>
<defs>
<filter id="filter0_i_41_450" x="0.505615" y="0.8125" width="38.4944" height="33.375" filterUnits="userSpaceOnUse" color-interpolation-filters="sRGB">
<feFlood flood-opacity="0" result="BackgroundImageFix"/>
<feBlend mode="normal" in="SourceGraphic" in2="BackgroundImageFix" result="shape"/>
<feColorMatrix in="SourceAlpha" type="matrix" values="0 0 0 0 0 0 0 0 0 0 0 0 0 0 0 0 0 0 127 0" result="hardAlpha"/>
<feOffset dy="4"/>
<feGaussianBlur stdDeviation="2"/>
<feComposite in2="hardAlpha" operator="arithmetic" k2="-1" k3="1"/>
<feColorMatrix type="matrix" values="0 0 0 0 0 0 0 0 0 0 0 0 0 0 0 0 0 0 0.25 0"/>
<feBlend mode="normal" in2="shape" result="effect1_innerShadow_41_450"/>
</filter>
</defs>
</svg>
