<svg width="43" height="39" viewBox="0 0 43 39" fill="none" xmlns="http://www.w3.org/2000/svg">
<g filter="url(#filter0_i_41_697)">
<path d="M38.7619 31.5236C39.6057 31.524 40.417 31.8491 41.0277 32.4314C41.6383 33.0137 42.0016 33.8086 42.0422 34.6514C42.0827 35.4942 41.7974 36.3204 41.2455 36.9586C40.6935 37.5968 39.9172 37.9983 39.0773 38.0797L38.7619 38.095H3.71424C2.87043 38.0946 2.05913 37.7696 1.44844 37.1873C0.837756 36.605 0.474501 35.81 0.433951 34.9672C0.3934 34.1244 0.678662 33.2983 1.23063 32.66C1.78259 32.0218 2.55894 31.6204 3.39881 31.5389L3.71424 31.5236H38.7619ZM38.7619 16.1903C39.6333 16.1903 40.469 16.5364 41.0852 17.1526C41.7014 17.7688 42.0476 18.6046 42.0476 19.476C42.0476 20.3474 41.7014 21.1831 41.0852 21.7993C40.469 22.4155 39.6333 22.7617 38.7619 22.7617H3.71424C2.84282 22.7617 2.00708 22.4155 1.39089 21.7993C0.7747 21.1831 0.428528 20.3474 0.428528 19.476C0.428528 18.6046 0.7747 17.7688 1.39089 17.1526C2.00708 16.5364 2.84282 16.1903 3.71424 16.1903H38.7619ZM38.7619 0.856934C39.6333 0.856934 40.469 1.20311 41.0852 1.8193C41.7014 2.43549 42.0476 3.27122 42.0476 4.14265C42.0476 5.01407 41.7014 5.84981 41.0852 6.466C40.469 7.08219 39.6333 7.42836 38.7619 7.42836H3.71424C2.84282 7.42836 2.00708 7.08219 1.39089 6.466C0.7747 5.84981 0.428528 5.01407 0.428528 4.14265C0.428528 3.27122 0.7747 2.43549 1.39089 1.8193C2.00708 1.20311 2.84282 0.856934 3.71424 0.856934H38.7619Z" fill="white" fill-opacity="0.8"/>
</g>
<defs>
<filter id="filter0_i_41_697" x="0.428528" y="0.856934" width="41.6191" height="41.2383" filterUnits="userSpaceOnUse" color-interpolation-filters="sRGB">
<feFlood flood-opacity="0" result="BackgroundImageFix"/>
<feBlend mode="normal" in="SourceGraphic" in2="BackgroundImageFix" result="shape"/>
<feColorMatrix in="SourceAlpha" type="matrix" values="0 0 0 0 0 0 0 0 0 0 0 0 0 0 0 0 0 0 127 0" result="hardAlpha"/>
<feOffset dy="4"/>
<feGaussianBlur stdDeviation="2"/>
<feComposite in2="hardAlpha" operator="arithmetic" k2="-1" k3="1"/>
<feColorMatrix type="matrix" values="0 0 0 0 0 0 0 0 0 0 0 0 0 0 0 0 0 0 0.15 0"/>
<feBlend mode="normal" in2="shape" result="effect1_innerShadow_41_697"/>
</filter>
</defs>
</svg>
