<svg width="42" height="43" viewBox="0 0 42 43" fill="none" xmlns="http://www.w3.org/2000/svg">
<g filter="url(#filter0_d_41_762)">
<path fill-rule="evenodd" clip-rule="evenodd" d="M20.9999 0.416504C30.2049 0.416504 37.6666 8.06471 37.6666 17.4998C37.6666 26.935 30.2049 34.5832 20.9999 34.5832C11.7949 34.5832 4.33325 26.935 4.33325 17.4998C4.33325 8.06471 11.7949 0.416504 20.9999 0.416504ZM23.0899 23.3543H18.9099L16.9699 26.0928L18.5033 30.9273C20.153 31.2479 21.8468 31.2479 23.4966 30.9273L25.0299 26.0928L23.0899 23.3543ZM13.9116 27.5004H11.9116C12.7016 28.2538 13.5799 28.9115 14.5299 29.453L13.9116 27.5004ZM30.0882 27.5004H28.0883L27.4699 29.453C28.4161 28.9132 29.2964 28.2575 30.0882 27.5004ZM11.7833 16.2254L7.76992 19.215C7.97848 20.9236 8.50224 22.5758 9.31325 24.0838H14.2733L16.2133 21.347L14.9216 17.2709L11.7833 16.2254ZM30.2166 16.2254L27.0783 17.2709L25.7866 21.3453L27.7266 24.0838H32.6866C33.4978 22.5753 34.0216 20.9224 34.2299 19.2133L30.2166 16.2254ZM20.9999 14.4863L18.2033 16.5688L19.2716 19.9376H22.7283L23.7949 16.5688L20.9999 14.4863ZM8.91159 11.7274C8.45316 12.7349 8.11731 13.7963 7.91158 14.8878L9.52992 13.68L8.91159 11.7274ZM33.0883 11.7274L32.4699 13.68L34.0899 14.8861C33.8842 13.7946 33.5484 12.7331 33.0899 11.7257L33.0883 11.7274ZM15.3216 5.1315C13.8016 5.86672 12.4304 6.88907 11.2799 8.145L12.8133 12.9762L15.9533 14.0217L19.3333 11.5036V8.12109L15.3199 5.1315H15.3216ZM26.6799 5.1315L22.6666 8.12109V11.5036L26.0466 14.0217L29.1883 12.9762L30.7199 8.145C29.57 6.88921 28.1994 5.86687 26.6799 5.1315ZM20.9999 3.83317C20.6333 3.83317 20.2733 3.84855 19.9166 3.87759L19.3816 3.93225L20.9999 5.13834L22.6183 3.93225C22.0812 3.86595 21.5408 3.83286 20.9999 3.83317Z" fill="white"/>
</g>
<defs>
<filter id="filter0_d_41_762" x="0.333252" y="0.416504" width="41.3334" height="42.1665" filterUnits="userSpaceOnUse" color-interpolation-filters="sRGB">
<feFlood flood-opacity="0" result="BackgroundImageFix"/>
<feColorMatrix in="SourceAlpha" type="matrix" values="0 0 0 0 0 0 0 0 0 0 0 0 0 0 0 0 0 0 127 0" result="hardAlpha"/>
<feOffset dy="4"/>
<feGaussianBlur stdDeviation="2"/>
<feComposite in2="hardAlpha" operator="out"/>
<feColorMatrix type="matrix" values="0 0 0 0 0 0 0 0 0 0 0 0 0 0 0 0 0 0 0.25 0"/>
<feBlend mode="normal" in2="BackgroundImageFix" result="effect1_dropShadow_41_762"/>
<feBlend mode="normal" in="SourceGraphic" in2="effect1_dropShadow_41_762" result="shape"/>
</filter>
</defs>
</svg>
